<mxfile host="app.diagrams.net" modified="2023-08-17T07:07:15.518Z" agent="Mozilla/5.0 (Windows NT 10.0; Win64; x64) AppleWebKit/537.36 (KHTML, like Gecko) Chrome/115.0.0.0 Safari/537.36" etag="iYQchsdW9BMeyK6Hh46_" version="21.6.8" type="github">
  <diagram name="第 1 页" id="u3_eDgqfGAZCmg286Abo">
    <mxGraphModel dx="1050" dy="542" grid="1" gridSize="10" guides="1" tooltips="1" connect="1" arrows="1" fold="1" page="1" pageScale="1" pageWidth="827" pageHeight="1169" math="0" shadow="0">
      <root>
        <mxCell id="0" />
        <mxCell id="1" parent="0" />
        <mxCell id="TVAyjS350kaj7Nw4yYlz-4" style="edgeStyle=orthogonalEdgeStyle;rounded=0;orthogonalLoop=1;jettySize=auto;html=1;entryX=0.5;entryY=0;entryDx=0;entryDy=0;" edge="1" parent="1" source="TVAyjS350kaj7Nw4yYlz-1" target="TVAyjS350kaj7Nw4yYlz-2">
          <mxGeometry relative="1" as="geometry" />
        </mxCell>
        <mxCell id="TVAyjS350kaj7Nw4yYlz-5" style="edgeStyle=orthogonalEdgeStyle;rounded=0;orthogonalLoop=1;jettySize=auto;html=1;entryX=0.5;entryY=0;entryDx=0;entryDy=0;" edge="1" parent="1" source="TVAyjS350kaj7Nw4yYlz-1" target="TVAyjS350kaj7Nw4yYlz-3">
          <mxGeometry relative="1" as="geometry" />
        </mxCell>
        <mxCell id="TVAyjS350kaj7Nw4yYlz-1" value="网店商品" style="ellipse;whiteSpace=wrap;html=1;" vertex="1" parent="1">
          <mxGeometry x="354" y="130" width="120" height="80" as="geometry" />
        </mxCell>
        <mxCell id="TVAyjS350kaj7Nw4yYlz-7" style="edgeStyle=orthogonalEdgeStyle;rounded=0;orthogonalLoop=1;jettySize=auto;html=1;entryX=0;entryY=0.5;entryDx=0;entryDy=0;" edge="1" parent="1" source="TVAyjS350kaj7Nw4yYlz-2" target="TVAyjS350kaj7Nw4yYlz-3">
          <mxGeometry relative="1" as="geometry" />
        </mxCell>
        <mxCell id="TVAyjS350kaj7Nw4yYlz-9" style="edgeStyle=orthogonalEdgeStyle;rounded=0;orthogonalLoop=1;jettySize=auto;html=1;exitX=1;exitY=0;exitDx=0;exitDy=0;entryX=0.287;entryY=0.96;entryDx=0;entryDy=0;entryPerimeter=0;" edge="1" parent="1" source="TVAyjS350kaj7Nw4yYlz-2" target="TVAyjS350kaj7Nw4yYlz-1">
          <mxGeometry relative="1" as="geometry">
            <mxPoint x="300" y="210" as="targetPoint" />
            <Array as="points">
              <mxPoint x="282" y="340" />
              <mxPoint x="301" y="340" />
              <mxPoint x="301" y="207" />
            </Array>
          </mxGeometry>
        </mxCell>
        <mxCell id="TVAyjS350kaj7Nw4yYlz-2" value="系统商品" style="ellipse;whiteSpace=wrap;html=1;" vertex="1" parent="1">
          <mxGeometry x="180" y="370" width="120" height="80" as="geometry" />
        </mxCell>
        <mxCell id="TVAyjS350kaj7Nw4yYlz-8" style="edgeStyle=orthogonalEdgeStyle;rounded=0;orthogonalLoop=1;jettySize=auto;html=1;exitX=0;exitY=0;exitDx=0;exitDy=0;entryX=0.917;entryY=0.15;entryDx=0;entryDy=0;entryPerimeter=0;" edge="1" parent="1" source="TVAyjS350kaj7Nw4yYlz-3" target="TVAyjS350kaj7Nw4yYlz-2">
          <mxGeometry relative="1" as="geometry" />
        </mxCell>
        <mxCell id="TVAyjS350kaj7Nw4yYlz-10" style="edgeStyle=orthogonalEdgeStyle;rounded=0;orthogonalLoop=1;jettySize=auto;html=1;exitX=0;exitY=0;exitDx=0;exitDy=0;entryX=1;entryY=1;entryDx=0;entryDy=0;" edge="1" parent="1" source="TVAyjS350kaj7Nw4yYlz-3" target="TVAyjS350kaj7Nw4yYlz-1">
          <mxGeometry relative="1" as="geometry">
            <Array as="points">
              <mxPoint x="518" y="280" />
              <mxPoint x="456" y="280" />
            </Array>
          </mxGeometry>
        </mxCell>
        <mxCell id="TVAyjS350kaj7Nw4yYlz-3" value="厂家商品" style="ellipse;whiteSpace=wrap;html=1;" vertex="1" parent="1">
          <mxGeometry x="500" y="370" width="120" height="80" as="geometry" />
        </mxCell>
        <mxCell id="TVAyjS350kaj7Nw4yYlz-6" value="库存" style="text;html=1;align=center;verticalAlign=middle;resizable=0;points=[];autosize=1;strokeColor=none;fillColor=none;" vertex="1" parent="1">
          <mxGeometry x="205" y="468" width="50" height="30" as="geometry" />
        </mxCell>
      </root>
    </mxGraphModel>
  </diagram>
</mxfile>
